<?xml version="1.0" standalone="no"?>
<!DOCTYPE svg PUBLIC "-//W3C//DTD SVG 20010904//EN"
 "http://www.w3.org/TR/2001/REC-SVG-20010904/DTD/svg10.dtd">
<svg version="1.0" xmlns="http://www.w3.org/2000/svg"
 width="512.000000pt" height="512.000000pt" viewBox="0 0 512.000000 512.000000"
 preserveAspectRatio="xMidYMid meet">
<metadata>
Created by potrace 1.16, written by Peter Selinger 2001-2019
</metadata>
<g transform="translate(0.000000,512.000000) scale(0.100000,-0.100000)"
fill="#000000" stroke="none">
<path d="M1166 5098 c-21 -16 -41 -21 -72 -19 -52 3 -106 -21 -124 -54 -11
-20 -21 -25 -54 -25 -59 0 -106 -29 -132 -80 -12 -24 -33 -49 -47 -57 -71 -37
-90 -152 -41 -243 32 -58 111 -137 153 -151 17 -6 34 -22 41 -40 12 -27 67
-83 104 -104 14 -8 74 -239 272 -1049 139 -572 262 -1096 273 -1165 37 -230
41 -348 41 -1223 0 -471 3 -863 6 -872 8 -22 70 -22 78 0 11 28 7 1752 -4
1874 -6 63 -20 171 -31 239 -11 68 -18 125 -17 126 18 16 92 45 98 38 3 -4 15
-30 25 -58 9 -27 50 -117 91 -200 40 -82 82 -184 94 -225 28 -103 26 -230 -6
-395 -66 -347 -66 -463 2 -599 40 -79 82 -126 113 -126 41 0 51 17 51 90 0
135 38 233 169 438 88 137 121 206 152 312 18 65 26 79 38 74 63 -27 179 -27
242 0 12 5 18 -5 28 -46 24 -94 71 -196 153 -326 137 -218 166 -289 175 -427
3 -49 10 -96 16 -102 5 -7 22 -13 37 -13 22 0 36 10 63 48 110 150 125 289 65
592 -26 136 -32 189 -32 305 -1 167 9 205 114 415 37 74 76 158 85 185 10 28
22 54 25 58 6 7 80 -22 98 -38 1 -1 -6 -58 -17 -126 -11 -68 -25 -176 -31
-239 -11 -122 -15 -1846 -4 -1874 8 -22 70 -22 78 0 3 9 6 401 6 872 0 875 4
993 41 1223 11 69 134 593 273 1165 198 810 258 1041 272 1049 38 22 95 79
100 102 4 16 21 31 50 44 51 24 123 99 154 159 43 84 20 199 -47 233 -14 8
-35 33 -47 57 -26 51 -73 80 -132 80 -33 0 -43 5 -54 25 -18 33 -72 57 -124
54 -31 -2 -51 3 -73 19 -47 33 -127 31 -181 -5 -38 -26 -102 -97 -102 -113 0
-4 -20 -15 -45 -25 -27 -10 -56 -31 -73 -53 -24 -32 -27 -44 -27 -117 0 -75 3
-86 33 -135 l34 -54 -43 -108 c-23 -59 -45 -108 -48 -108 -3 0 -22 24 -41 52
-82 122 -263 270 -410 336 -283 126 -613 147 -855 53 -68 -26 -123 -59 -313
-183 -80 -52 -200 -164 -248 -231 l-20 -29 -43 109 -43 109 34 54 c30 49 33
60 33 135 0 73 -3 85 -27 117 -17 22 -46 43 -73 53 -25 10 -45 21 -45 25 0 16
-64 87 -102 113 -54 35 -138 38 -182 5z m-49 -151 c7 -23 23 -59 37 -80 19
-27 26 -51 26 -83 0 -39 5 -51 34 -80 33 -33 34 -35 14 -45 -31 -16 -63 5
-113 76 -48 66 -85 151 -85 192 0 33 26 63 54 63 17 0 24 -9 33 -43z m2955 26
c37 -33 9 -131 -67 -238 -50 -71 -82 -92 -113 -76 -20 10 -19 12 14 45 29 29
34 41 34 80 0 32 7 56 26 83 14 21 30 57 37 80 12 47 36 56 69 26z m-3124
-109 c17 -64 57 -142 103 -203 l39 -51 -31 0 c-16 0 -42 6 -58 14 -48 25 -141
175 -141 229 0 27 28 57 54 57 17 0 24 -10 34 -46z m3294 29 c34 -31 16 -94
-55 -196 -44 -63 -79 -87 -126 -87 l-31 0 39 51 c46 61 86 139 103 203 13 51
36 60 70 29z m-2762 -40 c30 -25 32 -30 28 -75 -4 -35 -16 -64 -42 -102 -20
-29 -36 -62 -36 -73 0 -11 28 -90 63 -174 l63 -154 -19 -45 c-36 -80 -66 -208
-78 -330 -13 -134 -2 -324 30 -488 l18 -93 -31 -16 c-17 -9 -46 -32 -63 -51
-18 -20 -34 -34 -37 -31 -5 6 -268 1091 -264 1093 2 1 17 6 33 12 24 7 31 16
33 41 4 40 -20 55 -70 44 -52 -12 -85 -3 -113 31 l-25 29 29 25 c20 16 41 24
68 24 21 0 55 9 76 20 20 11 51 20 68 20 49 0 96 28 116 69 11 23 31 43 55 54
41 20 54 46 38 77 -12 22 -58 28 -77 9 -6 -6 -23 -9 -39 -7 -23 2 -29 8 -29
28 0 19 10 30 44 49 39 22 85 37 118 40 6 1 26 -11 43 -26z m2315 -12 c40 -21
50 -31 50 -51 0 -20 -6 -26 -29 -28 -16 -2 -33 1 -39 7 -19 19 -65 13 -77 -9
-16 -31 -3 -57 38 -77 24 -11 44 -31 55 -54 20 -41 67 -69 116 -69 17 0 48 -9
68 -20 21 -11 55 -20 76 -20 27 0 48 -8 67 -24 27 -22 28 -25 13 -46 -24 -34
-72 -50 -118 -40 -53 12 -77 -2 -73 -43 2 -25 9 -34 33 -41 17 -6 31 -11 33
-12 4 -2 -259 -1087 -265 -1093 -2 -3 -18 11 -36 31 -17 19 -46 42 -63 51 -31
16 -32 18 -22 59 39 175 49 444 23 608 -9 52 -31 141 -50 196 l-35 101 65 158
c36 87 65 167 65 178 0 11 -16 44 -36 73 -26 38 -38 67 -42 102 -4 45 -2 50
28 75 38 33 76 30 155 -12z m-1304 -976 c125 -90 234 -151 389 -216 278 -118
394 -184 553 -316 l77 -65 -6 -52 c-13 -104 -54 -314 -79 -401 -76 -267 -242
-464 -504 -599 -143 -74 -214 -91 -366 -90 -113 0 -140 4 -210 27 -249 83
-487 283 -586 492 -58 122 -115 348 -143 567 l-5 46 57 33 c86 48 160 108 248
202 129 137 236 332 286 518 l21 78 95 -84 c52 -46 130 -109 173 -140z m-961
-685 c0 -34 44 -274 64 -347 17 -65 8 -68 -56 -20 -115 86 -143 273 -56 372
34 39 48 38 48 -5z m2149 -67 c30 -108 -11 -236 -97 -300 -69 -52 -73 -47 -46
63 13 52 30 145 40 207 9 62 18 119 21 127 7 23 69 -50 82 -97z m-2087 -428
c35 -7 37 -10 43 -54 6 -40 21 -118 41 -211 5 -22 0 -28 -41 -48 -34 -16 -47
-19 -50 -10 -7 20 -85 341 -85 350 0 5 13 2 28 -6 15 -8 44 -17 64 -21z m1988
-147 c-24 -95 -45 -176 -47 -180 -3 -6 -75 23 -91 37 -1 1 6 49 17 106 11 57
23 121 26 141 5 33 9 37 43 43 20 3 48 12 62 20 14 7 26 12 28 10 2 -2 -15
-81 -38 -177z m-894 -547 c-3 -24 -6 -97 -6 -163 l0 -119 -42 -19 c-54 -25
-102 -25 -155 0 l-43 19 0 119 c0 66 -3 139 -6 163 l-6 44 132 0 132 0 -6 -44z"/>
<path d="M2002 3408 c-7 -7 -12 -24 -12 -39 0 -23 11 -34 75 -71 85 -50 85
-44 -12 -102 -55 -32 -63 -41 -63 -67 0 -21 7 -32 24 -40 21 -10 37 -3 138 57
122 73 128 78 128 111 0 18 -24 36 -118 93 -121 72 -139 79 -160 58z"/>
<path d="M2958 3349 c-94 -56 -118 -75 -118 -92 0 -33 6 -38 128 -111 101 -60
117 -67 138 -57 17 8 24 19 24 40 0 26 -8 35 -62 67 -98 58 -98 52 -13 102 64
37 75 48 75 71 0 30 -16 51 -39 51 -9 0 -69 -32 -133 -71z"/>
<path d="M2356 3178 c-40 -40 -51 -73 -42 -123 17 -87 98 -130 246 -130 148 0
229 43 246 130 9 50 -2 83 -42 123 l-35 35 -67 -8 c-37 -4 -83 -7 -102 -7 -19
0 -65 3 -102 7 l-67 8 -35 -35z m204 -72 c30 0 74 3 97 8 36 7 42 6 52 -13 27
-50 -34 -86 -149 -86 -115 0 -176 36 -149 86 10 19 16 20 52 13 23 -5 67 -8
97 -8z"/>
</g>
</svg>
