<?xml version="1.0" standalone="no"?>
<!DOCTYPE svg PUBLIC "-//W3C//DTD SVG 20010904//EN"
 "http://www.w3.org/TR/2001/REC-SVG-20010904/DTD/svg10.dtd">
<svg version="1.0" xmlns="http://www.w3.org/2000/svg"
 width="512.000000pt" height="512.000000pt" viewBox="0 0 512.000000 512.000000"
 preserveAspectRatio="xMidYMid meet">
<metadata>
Created by potrace 1.16, written by Peter Selinger 2001-2019
</metadata>
<g transform="translate(0.000000,512.000000) scale(0.100000,-0.100000)"
fill="#000000" stroke="none">
<path d="M1328 4505 c-439 -72 -799 -391 -923 -819 -39 -138 -48 -215 -42
-386 7 -215 50 -365 153 -544 l46 -78 -25 -57 c-78 -175 -72 -312 22 -500 77
-152 258 -413 373 -537 29 -30 29 -32 32 -170 2 -119 7 -151 29 -219 15 -44
40 -103 57 -132 39 -69 139 -174 215 -228 274 -195 725 -273 1210 -211 71 9
110 8 185 -2 56 -8 186 -14 315 -14 181 -1 240 3 335 20 307 56 517 155 668
316 75 81 114 146 149 251 22 68 27 100 29 218 l3 138 54 62 c134 156 271 356
351 513 88 171 95 312 26 478 l-31 74 45 79 c56 95 89 176 122 296 21 75 27
122 31 252 6 180 -7 276 -57 427 -200 599 -842 923 -1450 733 -211 -67 -348
-154 -547 -349 l-143 -139 -142 139 c-229 224 -407 325 -665 379 -109 23 -317
28 -425 10z m-223 -1777 c69 -36 123 -98 243 -285 137 -212 149 -227 196 -227
65 0 75 20 96 195 17 143 20 155 45 176 33 29 67 29 101 0 59 -51 84 -361 43
-547 -38 -177 -41 -160 36 -239 78 -81 207 -176 331 -242 64 -35 82 -48 68
-53 -124 -37 -540 -42 -725 -8 -127 23 -275 67 -372 111 -51 23 -74 43 -128
107 -225 267 -376 521 -386 647 -12 147 78 315 202 374 68 33 176 29 250 -9z
m3160 8 c122 -57 213 -223 203 -372 -5 -78 -61 -195 -176 -369 -402 -603
-1009 -1038 -1639 -1171 -576 -122 -1127 -33 -1379 223 -90 91 -136 192 -150
334 -7 68 -6 72 12 65 235 -95 456 -136 735 -136 188 0 307 12 479 46 258 53
520 158 710 285 106 71 247 200 256 234 3 13 -7 76 -21 141 -33 142 -36 280
-11 424 21 118 31 144 62 159 37 16 60 14 89 -12 24 -20 28 -34 44 -169 20
-157 32 -191 76 -202 51 -13 75 12 201 204 161 245 206 294 299 328 55 19 155
14 210 -12z m-285 -1446 c-64 -286 -381 -478 -855 -515 l-80 -6 111 48 c268
118 542 298 769 506 68 62 75 58 55 -33z"/>
</g>
</svg>
