<?xml version="1.0" standalone="no"?>
<!DOCTYPE svg PUBLIC "-//W3C//DTD SVG 20010904//EN"
 "http://www.w3.org/TR/2001/REC-SVG-20010904/DTD/svg10.dtd">
<svg version="1.0" xmlns="http://www.w3.org/2000/svg"
 width="512.000000pt" height="512.000000pt" viewBox="0 0 512.000000 512.000000"
 preserveAspectRatio="xMidYMid meet">
<metadata>
Created by potrace 1.16, written by Peter Selinger 2001-2019
</metadata>
<g transform="translate(0.000000,512.000000) scale(0.100000,-0.100000)"
fill="#000000" stroke="none">
<path d="M1216 3994 c-620 -104 -1100 -584 -1202 -1203 -18 -110 -18 -352 0
-462 92 -556 491 -1007 1029 -1163 196 -57 171 -56 1517 -56 1346 0 1321 -1
1517 56 538 156 937 607 1029 1163 18 110 18 352 0 462 -41 246 -137 464 -292
664 -185 239 -444 414 -737 499 -197 57 -168 56 -1529 55 -992 -1 -1269 -4
-1332 -15z m2653 -169 c292 -51 520 -171 725 -380 230 -235 356 -548 356 -885
0 -337 -126 -650 -356 -885 -205 -209 -433 -329 -725 -380 -125 -22 -2493 -22
-2618 0 -292 51 -520 171 -725 380 -230 235 -356 548 -356 885 0 629 441 1149
1073 1265 113 20 2509 21 2626 0z"/>
<path d="M1349 3579 c-408 -35 -772 -336 -883 -731 -177 -625 250 -1253 889
-1307 195 -16 367 15 540 99 279 135 465 364 552 680 14 51 17 103 17 240 0
218 -23 318 -115 488 -193 360 -583 567 -1000 531z m335 -199 c292 -89 504
-304 588 -597 33 -113 33 -333 0 -446 -77 -268 -275 -485 -525 -575 -110 -40
-186 -53 -307 -53 -384 1 -721 266 -821 646 -16 61 -21 110 -21 205 0 95 5
144 21 205 93 354 396 614 751 644 100 8 229 -4 314 -29z"/>
<path d="M1084 2813 c-40 -7 -58 -40 -62 -109 -5 -78 9 -118 49 -134 35 -15
72 -7 99 22 16 18 20 35 20 98 0 67 -3 79 -22 97 -26 24 -53 32 -84 26z"/>
<path d="M1754 2806 c-39 -17 -44 -31 -44 -122 0 -66 3 -78 25 -99 31 -32 75
-32 110 -2 20 17 27 34 32 78 8 78 -10 127 -53 145 -39 16 -32 16 -70 0z"/>
<path d="M1050 2212 c-59 -59 -32 -114 85 -171 44 -22 109 -47 145 -57 87 -22
253 -22 340 0 73 19 193 77 228 109 48 45 13 147 -51 147 -13 0 -63 -20 -110
-44 -169 -86 -351 -82 -501 12 -21 13 -53 26 -72 29 -27 5 -38 0 -64 -25z"/>
<path d="M3566 3579 c-121 -12 -222 -41 -341 -99 -279 -135 -465 -364 -552
-680 -14 -51 -17 -103 -17 -240 0 -218 23 -318 115 -488 100 -188 257 -337
454 -432 173 -84 345 -115 540 -99 415 35 777 332 889 731 126 444 -47 903
-434 1153 -120 78 -286 138 -413 150 -127 12 -154 12 -241 4z m323 -194 c238
-62 447 -238 556 -466 57 -120 77 -214 77 -359 0 -95 -5 -144 -21 -205 -100
-380 -437 -645 -821 -646 -121 0 -197 13 -307 53 -250 90 -448 307 -525 575
-33 113 -33 333 0 446 131 455 590 720 1041 602z"/>
<path d="M3294 2806 c-41 -18 -59 -68 -51 -145 5 -44 12 -61 32 -78 35 -30 79
-30 110 2 22 22 25 32 25 105 0 67 -3 83 -20 100 -11 11 -24 20 -29 20 -5 0
-15 2 -23 5 -7 2 -27 -2 -44 -9z"/>
<path d="M3990 2813 c-8 -3 -25 -15 -37 -26 -20 -18 -23 -30 -23 -97 0 -63 4
-80 20 -98 43 -46 118 -36 140 19 19 44 9 155 -15 178 -22 21 -62 32 -85 24z"/>
<path d="M3489 2276 c-87 -25 -179 -70 -215 -102 -18 -17 -24 -33 -24 -64 0
-86 69 -104 173 -46 158 89 332 89 495 0 81 -44 131 -46 162 -7 25 32 22 83
-6 114 -26 29 -173 97 -247 113 -101 23 -245 20 -338 -8z"/>
</g>
</svg>
