<?xml version="1.0" standalone="no"?>
<!DOCTYPE svg PUBLIC "-//W3C//DTD SVG 20010904//EN"
 "http://www.w3.org/TR/2001/REC-SVG-20010904/DTD/svg10.dtd">
<svg version="1.0" xmlns="http://www.w3.org/2000/svg"
 width="512.000000pt" height="512.000000pt" viewBox="0 0 512.000000 512.000000"
 preserveAspectRatio="xMidYMid meet">
<metadata>
Created by potrace 1.16, written by Peter Selinger 2001-2019
</metadata>
<g transform="translate(0.000000,512.000000) scale(0.100000,-0.100000)"
fill="#000000" stroke="none">
<path d="M840 5100 c-11 -11 -20 -33 -20 -49 0 -16 25 -123 56 -237 45 -169
60 -213 80 -231 45 -41 79 -30 167 55 31 31 57 53 57 48 0 -9 56 -253 71 -309
18 -68 100 -82 143 -24 l20 27 -58 253 c-32 138 -64 262 -71 273 -17 27 -56
37 -90 24 -15 -6 -53 -36 -86 -67 -32 -31 -61 -54 -63 -52 -1 2 -19 64 -39
138 -20 73 -44 142 -53 152 -24 26 -88 25 -114 -1z"/>
<path d="M4166 5101 c-10 -11 -33 -79 -53 -153 -19 -73 -37 -135 -39 -137 -2
-2 -32 23 -66 56 -35 33 -75 63 -90 66 -33 9 -73 -6 -86 -30 -6 -10 -36 -132
-68 -270 l-58 -253 20 -27 c43 -58 125 -44 143 24 15 56 71 300 71 309 0 5 26
-17 58 -48 87 -85 121 -96 166 -55 20 18 35 62 80 231 31 114 56 221 56 237 0
16 -9 38 -20 49 -27 27 -90 27 -114 1z"/>
<path d="M2487 4940 c-19 -15 -71 -109 -158 -282 -81 -162 -134 -258 -142
-255 -7 2 -120 75 -252 162 -238 156 -240 157 -288 152 -57 -5 -104 -43 -113
-92 -3 -17 2 -140 10 -273 9 -132 16 -260 16 -283 l0 -42 -112 7 c-62 3 -158
9 -213 12 l-100 7 3 39 c11 107 -67 215 -170 238 l-55 13 -6 52 c-9 89 -61
165 -142 208 -34 18 -61 22 -191 25 -224 6 -300 -24 -358 -140 l-26 -52 0
-497 0 -498 26 -20 c47 -37 103 -22 124 33 5 15 10 86 10 157 l0 129 200 0
200 0 0 -797 c0 -782 1 -799 21 -843 29 -63 375 -411 443 -445 48 -24 58 -25
239 -25 l189 0 66 -60 c116 -107 223 -146 422 -156 l125 -7 48 -44 c74 -69
125 -88 232 -88 77 0 98 4 147 27 31 14 73 44 95 65 l38 40 150 6 c83 4 175
13 205 21 86 24 175 74 244 138 l64 58 189 0 c247 0 231 -8 475 237 221 222
227 233 228 376 0 91 -2 100 -25 122 -32 33 -78 33 -110 0 -23 -22 -25 -32
-25 -112 l0 -87 -188 -188 -188 -188 -132 0 c-73 0 -132 3 -132 8 0 4 7 32 16
62 10 36 17 116 20 230 l6 175 35 72 c61 123 57 269 -11 373 -22 33 -23 48
-29 260 -4 166 -11 248 -25 315 -85 395 -376 706 -758 812 -90 25 -115 28
-264 28 -149 0 -174 -3 -264 -28 -382 -106 -673 -417 -758 -812 -14 -66 -21
-149 -25 -315 -6 -223 -6 -224 -34 -268 -63 -100 -66 -245 -6 -365 l35 -72 6
-175 c3 -114 10 -194 20 -230 9 -30 16 -58 16 -62 0 -5 -59 -8 -132 -8 l-132
0 -188 188 -188 188 0 322 0 322 190 -95 c109 -54 202 -95 219 -95 43 0 75 30
75 73 0 19 -6 43 -14 52 -8 9 -117 68 -242 131 l-228 114 0 40 0 40 189 94
c194 97 220 117 242 183 25 76 12 107 -140 339 -130 199 -139 215 -114 210 15
-3 132 -10 260 -17 l232 -12 47 24 c33 17 54 37 72 70 l26 46 -15 259 c-8 142
-14 260 -14 261 1 1 95 -60 210 -137 225 -150 259 -164 336 -141 68 21 89 49
204 280 60 122 112 221 115 221 3 0 55 -99 115 -221 66 -133 121 -230 137
-244 39 -33 93 -48 146 -41 48 6 136 57 152 87 17 31 11 74 -13 97 -31 29 -72
28 -122 -3 -22 -13 -43 -25 -47 -25 -5 0 -66 116 -137 258 -71 141 -138 266
-150 276 -13 12 -41 21 -74 24 -43 3 -57 0 -80 -18z m-1770 -503 c26 -26 28
-33 31 -130 5 -146 27 -165 154 -132 21 6 32 2 52 -18 43 -43 35 -63 -71 -169
l-98 -98 -217 0 -218 0 0 256 c0 155 4 263 10 274 22 42 57 50 197 48 130 -3
133 -4 160 -31z m2068 -496 c83 -25 198 -78 261 -122 81 -55 183 -160 239
-244 111 -166 152 -307 162 -549 l6 -159 -33 6 c-18 4 -45 7 -60 7 l-28 0 -4
103 c-4 117 -23 168 -88 236 -76 78 -102 85 -300 89 -168 3 -177 2 -220 -21
-30 -15 -63 -47 -97 -93 l-52 -69 -268 -5 -268 -5 -68 -33 c-74 -37 -136 -102
-157 -167 -10 -31 -16 -35 -45 -35 -18 0 -47 -3 -65 -7 l-33 -6 6 159 c10 242
51 383 162 549 56 85 158 189 240 245 93 64 246 125 360 144 71 11 280 -3 350
-23z m-1725 -337 c72 -108 130 -200 130 -205 0 -5 -63 -40 -140 -79 l-140 -70
0 268 c0 238 3 282 17 282 2 0 62 -88 133 -196z m2026 -470 c20 -10 45 -34 59
-59 l25 -42 0 -339 c0 -380 -5 -416 -67 -542 -43 -87 -140 -195 -226 -252
-187 -122 -447 -122 -634 0 -86 57 -183 165 -226 252 -59 119 -67 172 -67 441
0 267 6 294 73 336 43 26 43 26 51 -5 6 -21 28 -36 132 -85 130 -61 165 -69
201 -44 51 36 36 112 -30 144 l-42 20 131 1 c162 0 194 13 267 110 27 36 54
68 60 72 7 4 68 8 135 8 94 0 132 -4 158 -16z m-1296 -608 c0 -107 3 -201 6
-210 13 -34 -83 -7 -133 37 -74 65 -92 161 -48 254 27 59 97 113 147 113 l28
0 0 -194z m1644 164 c116 -74 128 -245 23 -337 -50 -44 -146 -71 -133 -37 3 9
6 103 6 210 l0 194 28 0 c15 0 49 -14 76 -30z m-1658 -547 c69 -6 71 -6 83
-39 36 -100 200 -289 299 -344 l42 -24 0 -83 0 -83 -47 0 c-141 0 -261 46
-348 133 -92 93 -135 215 -135 386 0 66 2 72 18 66 9 -4 49 -9 88 -12z m1674
-50 c-1 -176 -43 -297 -135 -390 -93 -92 -206 -133 -374 -133 -63 0 -72 2 -67
16 3 9 6 41 6 72 l0 57 58 32 c130 72 280 238 324 359 11 32 15 34 63 35 27 1
64 5 80 9 17 4 33 8 38 9 4 0 7 -29 7 -66z m-872 -438 l142 0 0 -25 c0 -79
-60 -169 -127 -191 -116 -38 -233 51 -233 179 l0 53 38 -8 c20 -4 101 -8 180
-8z"/>
<path d="M2885 3005 c-27 -13 -80 -38 -117 -55 -48 -23 -69 -39 -78 -59 -22
-55 13 -111 71 -111 33 0 259 104 277 127 20 27 15 77 -11 101 -30 29 -77 27
-142 -3z"/>
<path d="M2160 2760 c-17 -17 -20 -33 -20 -119 0 -96 1 -100 26 -120 35 -27
66 -27 99 2 22 18 27 34 32 84 7 76 -2 128 -28 154 -26 26 -83 25 -109 -1z"/>
<path d="M2851 2761 c-26 -26 -35 -78 -28 -154 5 -50 10 -66 32 -84 33 -29 64
-29 99 -2 25 20 26 24 26 120 0 86 -3 102 -20 119 -26 26 -83 27 -109 1z"/>
<path d="M2469 2707 c-93 -63 -113 -183 -43 -267 36 -42 74 -60 128 -60 36 0
48 5 65 26 12 15 21 39 21 53 0 32 -33 71 -59 71 -26 0 -44 23 -29 38 7 7 20
12 30 12 25 0 58 40 58 71 0 14 -9 38 -21 53 -28 35 -100 37 -150 3z"/>
<path d="M2410 2335 c-25 -8 -65 -31 -88 -51 -129 -110 -119 -304 19 -374 34
-18 59 -20 219 -20 160 0 185 2 219 20 78 39 117 115 108 205 -10 103 -83 191
-181 220 -63 19 -235 19 -296 0z m271 -168 c39 -26 59 -78 39 -102 -10 -12
-40 -15 -160 -15 -120 0 -150 3 -160 15 -20 24 0 76 39 102 29 20 47 23 121
23 74 0 92 -3 121 -23z"/>
<path d="M3347 4671 c-80 -52 -103 -85 -91 -125 18 -59 78 -74 141 -34 33 20
35 20 30 2 -3 -10 -11 -130 -18 -265 l-13 -246 27 -46 c19 -32 40 -52 74 -68
l46 -22 256 15 c141 8 257 14 257 14 1 -1 -62 -97 -139 -214 -150 -228 -163
-259 -138 -335 22 -66 48 -86 242 -183 l189 -94 0 -40 0 -40 -228 -114 c-125
-63 -234 -122 -242 -131 -8 -9 -14 -33 -14 -52 0 -43 32 -73 75 -73 17 0 110
41 219 95 l190 95 0 -90 c0 -83 2 -93 25 -115 32 -33 78 -33 110 0 l25 24 0
556 0 555 200 0 200 0 -2 -867 -3 -868 -29 -65 c-27 -59 -65 -101 -447 -485
-362 -364 -422 -428 -446 -480 l-28 -60 -5 -363 c-5 -344 -6 -364 -24 -378
-11 -7 -33 -16 -50 -19 -17 -3 -570 -4 -1228 -3 l-1197 3 -23 23 c-23 22 -23
23 -28 410 -5 383 -5 387 -29 437 -18 38 -118 144 -421 450 -361 364 -399 406
-426 465 l-29 65 -5 575 c-3 316 -9 583 -14 593 -20 41 -78 49 -120 16 l-26
-20 0 -573 c0 -629 0 -626 62 -756 28 -58 77 -110 424 -460 215 -217 399 -409
408 -427 14 -28 16 -80 16 -388 0 -227 4 -372 11 -400 13 -53 67 -119 120
-145 38 -20 61 -20 1318 -18 l1279 3 43 30 c27 19 54 50 71 84 l28 53 0 344
c0 289 3 351 15 382 11 25 153 175 434 457 371 374 421 427 448 485 66 138 63
65 63 1392 l0 1204 -26 52 c-32 65 -83 108 -153 128 -77 23 -341 16 -391 -10
-84 -44 -138 -121 -147 -211 l-6 -52 -55 -13 c-103 -23 -181 -131 -170 -238
l3 -39 -100 -7 c-55 -3 -151 -9 -212 -12 l-113 -7 0 42 c0 23 7 151 16 283 8
133 13 256 10 273 -10 49 -56 87 -113 92 -44 5 -54 1 -126 -46z m1373 -216
c16 -8 34 -24 40 -34 6 -12 10 -119 10 -275 l0 -256 -217 0 -218 0 -97 97
c-107 107 -116 126 -72 170 20 20 31 24 52 18 74 -19 106 -17 129 7 18 20 22
37 25 124 3 108 14 135 63 155 37 15 253 11 285 -6z m-510 -936 l0 -269 -140
70 c-77 39 -140 74 -140 78 0 19 261 403 270 397 6 -4 10 -107 10 -276z"/>
</g>
</svg>
