<?xml version="1.0" standalone="no"?>
<!DOCTYPE svg PUBLIC "-//W3C//DTD SVG 20010904//EN"
 "http://www.w3.org/TR/2001/REC-SVG-20010904/DTD/svg10.dtd">
<svg version="1.0" xmlns="http://www.w3.org/2000/svg"
 width="512.000000pt" height="512.000000pt" viewBox="0 0 512.000000 512.000000"
 preserveAspectRatio="xMidYMid meet">
<metadata>
Created by potrace 1.16, written by Peter Selinger 2001-2019
</metadata>
<g transform="translate(0.000000,512.000000) scale(0.100000,-0.100000)"
fill="#000000" stroke="none">
<path d="M2410 5094 c-57 -19 -107 -27 -210 -33 -162 -9 -182 -18 -352 -151
-58 -45 -23 -140 52 -140 16 0 56 21 100 51 112 77 117 79 242 83 88 2 132 9
196 30 46 14 101 26 122 26 21 0 76 -12 122 -26 64 -21 108 -28 196 -30 124
-4 133 -7 236 -80 36 -25 80 -48 98 -50 78 -13 123 88 61 136 -171 133 -191
142 -353 151 -103 6 -154 14 -213 33 -103 34 -195 34 -297 0z"/>
<path d="M2340 4765 c-436 -73 -815 -385 -975 -800 -69 -179 -77 -231 -82
-527 l-5 -268 -49 -35 c-60 -43 -122 -136 -139 -206 -19 -79 -9 -193 24 -261
55 -117 175 -201 303 -214 l61 -7 7 -51 c28 -204 127 -429 251 -568 32 -35 32
-37 19 -75 -8 -21 -14 -62 -15 -90 0 -30 -5 -53 -11 -53 -21 0 -84 -51 -110
-91 -16 -22 -31 -60 -34 -84 -7 -40 -10 -44 -43 -50 -21 -4 -70 -19 -109 -35
-222 -85 -408 -273 -495 -497 -51 -131 -58 -195 -58 -519 0 -281 1 -295 20
-314 28 -28 90 -27 116 1 18 19 19 45 25 343 5 300 7 325 28 386 49 140 129
256 236 343 59 47 193 119 248 131 l27 6 0 -58 c0 -86 23 -140 96 -225 l64
-75 0 -416 c0 -406 0 -416 21 -437 15 -15 30 -19 61 -17 76 6 74 -8 68 499
l-5 446 -67 72 c-83 90 -91 114 -86 278 3 123 4 125 31 149 15 13 39 24 51 24
13 0 35 9 48 20 24 18 26 27 30 114 3 83 7 99 28 121 l23 25 244 0 244 0 24
-25 25 -24 0 -829 0 -829 23 -21 c34 -32 89 -30 116 4 21 27 21 32 21 855 l0
828 26 20 c25 20 39 21 265 21 236 0 238 0 265 -24 26 -22 28 -29 32 -120 4
-89 6 -98 30 -116 13 -11 35 -20 48 -20 12 0 36 -11 51 -24 l28 -24 0 -149 c0
-169 3 -161 -92 -263 l-58 -63 -5 -446 c-6 -507 -8 -493 68 -499 46 -3 82 22
82 58 0 18 7 20 85 20 75 0 85 -2 85 -18 0 -60 100 -85 139 -36 12 15 21 33
21 40 0 11 35 14 184 14 183 0 185 0 192 -22 12 -40 35 -58 76 -58 25 0 45 7
58 20 19 19 20 33 20 314 0 324 -7 388 -58 519 -87 224 -273 412 -495 497 -39
16 -88 31 -109 35 -33 6 -36 10 -43 50 -3 24 -18 62 -34 84 -26 40 -89 91
-110 91 -6 0 -11 23 -11 53 -1 28 -7 69 -14 90 -14 37 -13 39 21 80 132 157
220 360 248 568 l6 46 62 7 c128 13 248 97 303 214 33 68 43 182 24 261 -17
71 -79 163 -140 207 l-50 36 0 221 c0 152 -5 252 -15 317 -18 108 -69 269
-116 362 -182 364 -531 623 -933 693 -106 18 -329 18 -436 0z m846 -1450 c8
-13 78 -196 156 -407 160 -434 158 -426 114 -602 -37 -144 -125 -315 -199
-384 l-25 -24 -286 2 -287 1 -49 -27 -50 -27 -50 27 -49 27 -288 -2 -288 -1
-42 47 c-98 112 -183 312 -201 476 l-10 84 65 125 c74 145 120 197 206 236 58
26 71 27 291 35 233 8 267 12 386 51 187 60 368 192 495 360 34 45 36 46 66
36 16 -6 37 -21 45 -33z m-1706 -485 l0 -220 -35 0 c-113 0 -205 99 -205 220
0 121 90 218 203 220 l37 0 0 -220z m2268 204 c84 -34 132 -109 132 -204 0
-121 -92 -220 -205 -220 l-35 0 0 220 0 220 35 0 c20 0 52 -7 73 -16z m-135
-1826 c9 -5 17 -13 17 -18 0 -44 -145 -363 -214 -470 l-35 -55 -1 103 0 104
64 75 c73 85 96 139 96 225 l0 58 28 -6 c15 -4 35 -11 45 -16z"/>
<path d="M2045 2736 c-64 -29 -125 -119 -125 -183 0 -113 96 -212 206 -213 58
0 139 43 172 92 38 58 42 147 10 208 -36 67 -94 103 -171 107 -38 2 -73 -2
-92 -11z"/>
<path d="M2915 2736 c-117 -51 -162 -199 -92 -304 31 -47 113 -92 169 -92 145
0 248 156 189 285 -19 43 -78 100 -118 116 -35 13 -113 11 -148 -5z"/>
<path d="M2312 2255 c-17 -8 -47 -26 -66 -40 -18 -14 -38 -25 -44 -25 -50 0
-90 -57 -73 -103 23 -61 110 -62 196 -2 l54 37 62 -41 c54 -36 68 -41 119 -41
51 0 65 5 119 41 l62 41 54 -37 c86 -60 173 -59 196 2 17 45 -23 103 -70 103
-5 0 -32 16 -60 35 -88 59 -154 59 -240 0 -28 -19 -56 -35 -62 -35 -7 0 -27
11 -46 26 -70 53 -137 66 -201 39z"/>
<path d="M1424 4671 c-28 -12 -53 -53 -78 -130 -20 -61 -24 -67 -77 -98 -96
-55 -129 -111 -129 -218 0 -48 -3 -54 -51 -100 -59 -58 -79 -92 -79 -133 0
-44 29 -74 73 -75 34 -1 43 6 109 77 92 99 99 113 107 205 l6 75 55 32 c75 44
114 92 135 167 10 34 24 71 31 82 19 27 18 69 -3 94 -21 24 -68 35 -99 22z"/>
<path d="M3560 4610 c-13 -13 -20 -33 -20 -56 0 -45 39 -85 111 -110 63 -23
68 -29 79 -97 13 -81 41 -126 108 -179 l61 -47 -6 -54 c-11 -112 17 -167 85
-167 65 0 76 21 75 153 0 146 -3 152 -136 263 -18 15 -27 35 -32 75 -15 109
-42 143 -162 200 -92 44 -133 49 -163 19z"/>
<path d="M980 3640 c-19 -19 -20 -33 -20 -215 0 -182 1 -196 20 -215 26 -26
80 -26 111 -1 23 19 24 23 27 208 3 180 2 190 -18 216 -27 34 -89 38 -120 7z"/>
<path d="M4024 3639 c-17 -19 -19 -38 -19 -214 0 -176 2 -195 19 -214 26 -28
88 -29 116 -1 19 19 20 33 20 215 0 182 -1 196 -20 215 -28 28 -90 27 -116 -1z"/>
<path d="M1145 1548 c-27 -5 -65 -11 -84 -14 -47 -7 -94 -58 -117 -123 -16
-45 -25 -56 -54 -68 -117 -49 -138 -72 -150 -166 -5 -34 -11 -81 -15 -104 -6
-36 -4 -45 18 -67 33 -33 77 -34 112 -3 20 17 28 38 38 97 l12 75 43 16 c70
25 107 62 133 128 l23 60 51 6 c27 4 65 11 83 17 65 20 76 119 16 147 -28 12
-39 12 -109 -1z"/>
<path d="M3863 1548 c-33 -16 -46 -62 -29 -103 15 -36 44 -49 131 -60 l51 -6
23 -60 c26 -66 63 -103 133 -128 l43 -16 12 -75 c10 -59 18 -80 38 -97 35 -31
79 -30 112 3 22 22 24 31 18 67 -4 23 -10 70 -15 104 -12 94 -34 118 -151 166
-27 11 -38 23 -47 53 -16 52 -46 99 -76 119 -22 15 -49 20 -181 39 -22 3 -50
1 -62 -6z"/>
<path d="M1431 844 c-11 -15 -21 -34 -21 -44 0 -9 -13 -34 -30 -55 -62 -78
-63 -173 -4 -250 19 -25 34 -52 34 -61 0 -9 -13 -32 -30 -50 -61 -70 -63 -172
-4 -249 19 -25 34 -54 34 -64 0 -10 9 -30 21 -45 42 -53 139 -23 139 43 0 47
-21 101 -51 135 -16 19 -29 41 -29 50 0 9 15 36 34 61 59 77 58 172 -4 250
-17 21 -30 44 -30 51 0 8 15 34 34 59 71 92 55 187 -31 193 -34 3 -44 -1 -62
-24z"/>
<path d="M615 590 c-10 -11 -23 -28 -29 -38 -6 -10 -21 -34 -33 -53 -32 -48
-32 -128 1 -165 l23 -28 -24 -35 c-35 -50 -29 -138 10 -179 15 -15 27 -33 27
-40 0 -48 100 -71 136 -31 25 27 23 88 -5 134 l-21 36 22 30 c30 40 30 113 0
163 -22 37 -22 38 -3 62 40 51 32 140 -14 158 -32 12 -72 6 -90 -14z"/>
<path d="M4412 603 c-7 -3 -19 -18 -28 -34 -18 -35 -11 -88 17 -123 19 -24 19
-25 -3 -62 -29 -50 -30 -123 -1 -163 l22 -28 -25 -49 c-41 -80 -15 -144 58
-144 38 0 78 26 78 52 0 7 12 25 27 40 39 41 45 129 10 179 l-24 35 23 28 c33
37 33 117 1 165 -12 19 -27 43 -33 53 -32 53 -74 71 -122 51z"/>
</g>
</svg>
