<?xml version="1.0" standalone="no"?>
<!DOCTYPE svg PUBLIC "-//W3C//DTD SVG 20010904//EN"
 "http://www.w3.org/TR/2001/REC-SVG-20010904/DTD/svg10.dtd">
<svg version="1.0" xmlns="http://www.w3.org/2000/svg"
 width="512.000000pt" height="512.000000pt" viewBox="0 0 512.000000 512.000000"
 preserveAspectRatio="xMidYMid meet">
<metadata>
Created by potrace 1.16, written by Peter Selinger 2001-2019
</metadata>
<g transform="translate(0.000000,512.000000) scale(0.100000,-0.100000)"
fill="#000000" stroke="none">
<path d="M2741 5094 c-19 -25 -21 -40 -21 -205 0 -112 4 -187 11 -203 15 -32
60 -49 96 -35 50 19 52 30 53 235 0 178 -1 192 -20 212 -31 33 -92 30 -119 -4z"/>
<path d="M2262 4777 c-37 -39 -29 -80 26 -139 58 -62 98 -82 140 -67 30 10 52
44 52 80 0 12 -27 49 -62 85 -53 56 -66 64 -98 64 -25 0 -43 -7 -58 -23z"/>
<path d="M3182 4736 c-66 -68 -74 -94 -46 -134 40 -58 100 -46 177 36 37 40
47 58 47 85 0 47 -31 77 -79 77 -33 0 -45 -7 -99 -64z"/>
<path d="M2625 4466 c-51 -22 -97 -68 -121 -121 -24 -50 -24 -53 -24 -422 0
-403 -4 -439 -53 -543 -27 -57 -64 -98 -286 -320 -338 -338 -343 -340 -682
-340 l-197 0 -12 30 c-17 42 -90 104 -138 118 -28 8 -172 12 -483 12 l-444 0
-50 -24 c-27 -13 -62 -36 -77 -52 -62 -66 -58 17 -58 -1371 l0 -1268 30 -52
c22 -39 44 -61 83 -83 l52 -30 468 0 468 0 49 25 c50 25 110 93 110 123 0 13
54 14 433 9 479 -6 469 -5 882 -87 138 -27 295 -54 350 -60 66 -7 325 -10 765
-8 l665 3 67 33 c128 63 208 183 216 325 6 100 -10 169 -54 242 -19 32 -33 58
-32 59 40 15 94 52 136 93 71 71 104 144 110 246 6 100 -10 169 -54 242 -19
32 -33 59 -32 60 2 1 21 11 43 21 57 26 136 109 170 179 25 50 30 74 33 155 4
104 -13 171 -64 245 -14 21 -24 39 -22 40 2 1 23 13 47 25 62 31 132 105 167
175 27 56 29 68 29 175 0 106 -2 120 -28 173 -40 80 -112 151 -194 190 l-68
32 -731 5 -731 5 -49 30 c-59 37 -110 109 -119 168 -5 30 4 96 29 222 19 99
40 221 46 270 13 120 13 560 -1 627 -40 195 -210 372 -405 422 -74 19 -198 20
-239 2z m258 -179 c102 -47 189 -147 221 -256 13 -43 16 -104 16 -286 0 -259
-6 -324 -56 -580 -42 -213 -41 -272 5 -371 41 -89 99 -147 189 -192 l76 -37
725 -5 c550 -4 733 -8 754 -18 53 -23 96 -64 122 -115 56 -113 18 -245 -89
-312 l-49 -30 -451 -5 c-248 -3 -458 -9 -468 -13 -23 -12 -40 -59 -32 -91 14
-55 18 -56 392 -56 219 0 359 -4 387 -11 56 -14 131 -79 156 -134 11 -24 19
-64 19 -100 0 -81 -43 -155 -114 -200 l-49 -30 -451 -5 c-248 -3 -458 -9 -468
-13 -39 -20 -46 -100 -11 -129 12 -10 105 -14 387 -18 356 -5 373 -6 411 -27
87 -47 135 -123 135 -216 0 -92 -45 -168 -124 -210 -40 -22 -51 -22 -494 -27
l-454 -5 -24 -28 c-29 -34 -31 -66 -3 -101 l20 -26 348 0 c391 0 422 -4 491
-66 132 -120 96 -327 -69 -403 -32 -14 -105 -16 -661 -16 -703 0 -685 -1
-1079 76 -388 77 -409 79 -888 79 l-423 0 0 930 c0 1037 4 983 -66 996 -27 5
-42 2 -62 -13 l-27 -20 -5 -994 c-4 -776 -8 -999 -18 -1016 -23 -41 -64 -44
-489 -41 l-403 3 -27 28 -28 27 0 1231 0 1231 28 24 28 24 425 0 426 0 29 -29
c29 -29 29 -31 29 -140 0 -106 1 -110 26 -130 33 -26 75 -27 105 -2 18 14 23
31 27 79 l4 60 227 4 c214 4 230 5 299 30 135 49 172 78 447 353 392 391 377
356 385 928 l5 409 25 20 c34 28 135 21 213 -15z"/>
<path d="M570 867 c-174 -48 -230 -279 -99 -404 46 -44 97 -63 167 -63 155 0
264 136 231 289 -28 132 -167 215 -299 178z m95 -159 c78 -35 56 -147 -29
-148 -82 -1 -104 108 -31 148 26 14 29 14 60 0z"/>
</g>
</svg>
