<?xml version="1.0" standalone="no"?>
<!DOCTYPE svg PUBLIC "-//W3C//DTD SVG 20010904//EN"
 "http://www.w3.org/TR/2001/REC-SVG-20010904/DTD/svg10.dtd">
<svg version="1.0" xmlns="http://www.w3.org/2000/svg"
 width="512.000000pt" height="512.000000pt" viewBox="0 0 512.000000 512.000000"
 preserveAspectRatio="xMidYMid meet">
<metadata>
Created by potrace 1.16, written by Peter Selinger 2001-2019
</metadata>
<g transform="translate(0.000000,512.000000) scale(0.100000,-0.100000)"
fill="#000000" stroke="none">
<path d="M3550 4961 c-75 -16 -146 -74 -175 -144 -24 -59 -21 -149 7 -206 l23
-48 -42 -11 c-53 -15 -120 -74 -144 -127 -16 -34 -19 -68 -19 -232 l0 -193 80
0 80 0 0 154 c0 88 5 167 11 186 18 51 54 60 229 60 175 0 211 -9 229 -60 6
-19 11 -98 11 -186 l0 -154 80 0 80 0 0 193 c0 164 -3 198 -19 232 -24 54 -91
112 -145 127 l-44 11 24 45 c29 54 33 152 8 210 -42 102 -164 165 -274 143z
m100 -191 c11 -11 20 -33 20 -50 0 -17 -9 -39 -20 -50 -11 -11 -33 -20 -50
-20 -17 0 -39 9 -50 20 -11 11 -20 33 -20 50 0 17 9 39 20 50 11 11 33 20 50
20 17 0 39 -9 50 -20z"/>
<path d="M2590 4401 c-75 -16 -146 -74 -175 -144 -24 -59 -21 -149 7 -206 l23
-48 -42 -11 c-53 -15 -120 -74 -144 -127 -17 -36 -19 -71 -19 -327 0 -157 3
-294 6 -303 4 -9 39 -32 78 -52 39 -19 72 -36 73 -37 2 -2 19 -146 38 -322 43
-387 41 -380 66 -405 17 -17 33 -19 139 -19 106 0 122 2 139 19 25 25 23 18
66 405 19 176 36 320 38 322 1 1 34 18 73 37 39 20 74 43 78 52 3 9 6 146 6
303 0 256 -2 291 -19 327 -24 54 -91 112 -145 127 l-44 11 24 45 c29 54 33
152 8 210 -42 102 -164 165 -274 143z m100 -191 c11 -11 20 -33 20 -50 0 -17
-9 -39 -20 -50 -11 -11 -33 -20 -50 -20 -17 0 -39 9 -50 20 -11 11 -20 33 -20
50 0 17 9 39 20 50 11 11 33 20 50 20 17 0 39 -9 50 -20z m130 -381 c54 -19
60 -50 60 -286 l0 -209 -74 -36 c-62 -31 -76 -42 -84 -70 -6 -18 -25 -171 -43
-340 -19 -170 -36 -308 -39 -308 -3 0 -20 138 -39 308 -18 169 -37 322 -43
340 -8 28 -22 39 -84 70 l-74 36 0 207 c0 232 6 264 54 285 39 17 318 19 366
3z"/>
<path d="M4510 4401 c-75 -16 -146 -74 -175 -144 -24 -59 -21 -149 7 -206 l23
-48 -42 -11 c-53 -15 -120 -74 -144 -127 -17 -36 -19 -71 -19 -327 0 -157 3
-294 6 -303 4 -9 39 -32 78 -52 39 -19 72 -36 73 -37 2 -2 19 -146 38 -322 43
-387 41 -380 66 -405 17 -17 33 -19 139 -19 106 0 122 2 139 19 25 25 23 18
66 405 19 176 36 320 38 322 1 1 34 18 73 37 39 20 74 43 78 52 3 9 6 146 6
303 0 256 -2 291 -19 327 -24 54 -91 112 -145 127 l-44 11 24 45 c29 54 33
152 8 210 -42 102 -164 165 -274 143z m100 -191 c11 -11 20 -33 20 -50 0 -17
-9 -39 -20 -50 -11 -11 -33 -20 -50 -20 -17 0 -39 9 -50 20 -11 11 -20 33 -20
50 0 17 9 39 20 50 11 11 33 20 50 20 17 0 39 -9 50 -20z m130 -381 c54 -19
60 -50 60 -286 l0 -209 -74 -36 c-62 -31 -76 -42 -84 -70 -6 -18 -25 -171 -43
-340 -19 -170 -36 -308 -39 -308 -3 0 -20 138 -39 308 -18 169 -37 322 -43
340 -8 28 -22 39 -84 70 l-74 36 0 207 c0 232 6 264 54 285 39 17 318 19 366
3z"/>
<path d="M180 4140 c-20 -20 -20 -33 -20 -620 0 -587 0 -600 20 -620 19 -19
33 -20 255 -20 l235 0 71 -107 c39 -60 78 -114 87 -120 20 -17 84 -17 104 0 9
6 48 60 87 120 l71 107 235 0 c222 0 236 1 255 20 20 20 20 33 20 620 0 587 0
600 -20 620 -20 20 -33 20 -700 20 -667 0 -680 0 -700 -20z m1260 -620 l0
-480 -220 0 c-250 0 -227 8 -295 -98 -22 -34 -42 -62 -45 -62 -3 0 -23 28 -45
62 -68 106 -45 98 -295 98 l-220 0 0 480 0 480 560 0 560 0 0 -480z"/>
<path d="M640 3760 l0 -80 80 0 80 0 0 80 0 80 -80 0 -80 0 0 -80z"/>
<path d="M960 3760 l0 -80 80 0 80 0 0 80 0 80 -80 0 -80 0 0 -80z"/>
<path d="M752 3499 c-102 -40 -192 -163 -192 -264 l0 -35 85 0 c81 0 85 1 85
23 0 63 76 127 150 127 74 0 150 -64 150 -127 0 -22 4 -23 85 -23 l85 0 0 35
c0 102 -90 225 -195 264 -74 28 -180 28 -253 0z"/>
<path d="M3550 3841 c-75 -16 -146 -74 -175 -144 -24 -59 -21 -149 7 -206 l23
-48 -42 -11 c-53 -15 -120 -74 -144 -127 -17 -36 -19 -71 -19 -327 0 -157 3
-294 6 -303 4 -9 39 -32 78 -52 39 -19 72 -36 73 -37 2 -2 19 -146 38 -322 43
-387 41 -380 66 -405 17 -17 33 -19 139 -19 106 0 122 2 139 19 25 25 23 18
66 405 19 176 36 320 38 322 1 1 34 18 73 37 39 20 74 43 78 52 3 9 6 146 6
303 0 256 -2 291 -19 327 -24 54 -91 112 -145 127 l-44 11 24 45 c29 54 33
152 8 210 -42 102 -164 165 -274 143z m100 -191 c11 -11 20 -33 20 -50 0 -17
-9 -39 -20 -50 -11 -11 -33 -20 -50 -20 -17 0 -39 9 -50 20 -11 11 -20 33 -20
50 0 17 9 39 20 50 11 11 33 20 50 20 17 0 39 -9 50 -20z m130 -381 c54 -19
60 -50 60 -286 l0 -209 -74 -36 c-62 -31 -76 -42 -84 -70 -6 -18 -25 -171 -43
-340 -19 -170 -36 -308 -39 -308 -3 0 -20 138 -39 308 -18 169 -37 322 -43
340 -8 28 -22 39 -84 70 l-74 36 0 207 c0 232 6 264 54 285 39 17 318 19 366
3z"/>
<path d="M830 2481 c-75 -16 -146 -74 -175 -144 -24 -59 -21 -149 7 -206 l23
-48 -42 -11 c-53 -15 -120 -74 -144 -127 -17 -36 -19 -71 -19 -327 0 -157 3
-294 6 -303 4 -9 39 -32 78 -52 39 -19 72 -36 73 -37 2 -2 19 -146 38 -322 43
-387 41 -380 66 -405 17 -17 33 -19 139 -19 106 0 122 2 139 19 25 25 23 18
66 405 19 176 36 320 38 322 1 1 34 18 73 37 39 20 74 43 78 52 3 9 6 146 6
303 0 256 -2 291 -19 327 -24 54 -91 112 -145 127 l-44 11 24 45 c29 54 33
152 8 210 -42 102 -164 165 -274 143z m100 -191 c11 -11 20 -33 20 -50 0 -17
-9 -39 -20 -50 -43 -43 -120 -11 -120 50 0 38 32 70 70 70 17 0 39 -9 50 -20z
m130 -381 c54 -19 60 -50 60 -286 l0 -209 -74 -36 c-62 -31 -76 -42 -84 -70
-6 -18 -25 -171 -43 -340 -19 -170 -36 -308 -39 -308 -3 0 -20 138 -39 308
-18 169 -37 322 -43 340 -8 28 -22 39 -84 70 l-74 36 0 207 c0 232 6 264 54
285 39 17 318 19 366 3z"/>
<path d="M2960 2000 l0 -80 80 0 80 0 0 80 0 80 -80 0 -80 0 0 -80z"/>
<path d="M2640 1760 l0 -80 80 0 80 0 0 80 0 80 -80 0 -80 0 0 -80z"/>
<path d="M2320 1520 l0 -80 80 0 80 0 0 80 0 80 -80 0 -80 0 0 -80z"/>
<path d="M2000 1280 l0 -80 80 0 80 0 0 80 0 80 -80 0 -80 0 0 -80z"/>
<path d="M1680 1040 l0 -80 80 0 80 0 0 80 0 80 -80 0 -80 0 0 -80z"/>
<path d="M1360 800 l0 -80 80 0 80 0 0 80 0 80 -80 0 -80 0 0 -80z"/>
<path d="M560 240 l0 -80 320 0 320 0 0 80 0 80 -320 0 -320 0 0 -80z"/>
</g>
</svg>
