<?xml version="1.0" standalone="no"?>
<!DOCTYPE svg PUBLIC "-//W3C//DTD SVG 20010904//EN"
 "http://www.w3.org/TR/2001/REC-SVG-20010904/DTD/svg10.dtd">
<svg version="1.0" xmlns="http://www.w3.org/2000/svg"
 width="512.000000pt" height="512.000000pt" viewBox="0 0 512.000000 512.000000"
 preserveAspectRatio="xMidYMid meet">
<metadata>
Created by potrace 1.16, written by Peter Selinger 2001-2019
</metadata>
<g transform="translate(0.000000,512.000000) scale(0.100000,-0.100000)"
fill="#000000" stroke="none">
<path d="M2279 5100 c-307 -54 -603 -206 -818 -420 -191 -189 -314 -402 -387
-671 l-29 -104 -3 -1570 -2 -1570 -38 -74 -37 -74 -3 -195 c-2 -108 -1 -206 3
-219 12 -48 272 -147 479 -183 113 -19 161 -20 1116 -20 955 0 1003 1 1116 20
207 36 467 135 479 183 4 13 5 111 3 219 l-3 195 -37 74 -38 74 -2 1570 -3
1570 -28 104 c-74 270 -196 481 -388 671 -218 217 -513 367 -826 420 -153 26
-404 26 -554 0z m511 -165 c484 -80 898 -415 1054 -853 58 -163 67 -238 73
-617 l6 -351 -42 4 -41 4 0 97 c0 228 -74 372 -279 539 -58 47 -145 125 -192
172 -76 75 -93 99 -138 192 -28 58 -58 109 -67 112 -32 12 -84 6 -103 -13 -10
-10 -23 -46 -29 -81 -15 -81 -46 -133 -125 -206 -139 -131 -377 -237 -702
-314 -221 -52 -508 -89 -705 -91 -124 0 -190 -12 -207 -35 -10 -13 -13 -63
-13 -195 l0 -177 -41 -4 -42 -4 6 351 c6 379 15 454 73 617 171 479 649 832
1174 866 132 9 231 5 340 -13z m418 -1091 c34 -40 114 -114 179 -166 243 -195
283 -267 283 -508 0 -638 -412 -1246 -937 -1380 -422 -108 -912 212 -1150 752
-86 195 -127 389 -138 656 l-7 162 79 0 c144 0 571 50 658 77 41 12 -4 -24
-58 -47 -44 -19 -76 -23 -204 -28 l-153 -5 0 -78 0 -79 164 0 c135 0 175 4
227 19 120 38 212 123 241 225 l14 48 115 39 c131 45 312 130 397 188 74 50
162 130 193 175 13 19 27 32 30 28 4 -4 34 -39 67 -78z m-1897 -988 c24 -116
59 -231 105 -345 19 -46 33 -86 30 -88 -9 -10 -73 37 -120 87 -64 68 -103 156
-117 259 -15 108 -2 156 44 176 18 7 33 12 35 10 2 -1 12 -46 23 -99z m2596
45 c13 -30 14 -50 5 -122 -13 -108 -54 -200 -118 -269 -47 -50 -111 -97 -120
-87 -3 2 11 42 30 88 39 95 88 255 105 344 22 114 17 105 52 93 21 -7 36 -22
46 -47z m-2522 -640 c32 -12 80 -21 113 -21 l57 -1 52 -77 c127 -188 321 -365
501 -456 l53 -27 -3 -199 c-3 -184 -5 -201 -23 -219 -15 -15 -909 -381 -930
-381 -3 0 -5 337 -5 750 l0 749 64 -48 c35 -27 90 -58 121 -70z m2531 -1378
c-8 -8 -912 359 -931 378 -18 18 -20 35 -23 219 l-3 199 53 27 c179 90 375
270 501 456 l52 77 57 1 c75 0 154 31 231 89 l62 46 3 -744 c1 -409 0 -746 -2
-748z m-1356 722 c80 0 167 4 193 8 l49 8 -4 -183 c-3 -210 -10 -231 -81 -272
-118 -69 -322 -38 -374 57 -15 26 -19 64 -21 216 l-4 184 49 -9 c26 -5 113 -9
193 -9z m-307 -541 c22 -20 69 -50 106 -68 64 -30 70 -31 201 -31 131 0 137 1
201 31 37 18 84 48 105 67 l39 35 484 -193 c265 -107 498 -206 517 -220 19
-14 46 -50 61 -78 23 -46 26 -67 31 -182 l5 -130 -99 -36 c-139 -51 -264 -78
-412 -89 -165 -12 -1699 -12 -1864 0 -148 11 -273 38 -412 89 l-99 36 5 130
c5 115 8 136 31 182 15 28 42 64 61 78 24 18 875 372 995 414 2 0 22 -15 44
-35z"/>
<path d="M2720 3491 c0 -109 109 -228 249 -272 52 -15 92 -19 227 -19 l164 0
0 79 0 78 -153 5 c-129 5 -160 9 -205 28 -57 24 -112 79 -112 110 0 18 -7 20
-85 20 l-85 0 0 -29z"/>
<path d="M1675 2988 c15 -113 82 -207 179 -249 69 -30 187 -30 269 1 107 40
197 162 197 265 l0 35 -85 0 c-81 0 -85 -1 -85 -22 0 -33 -35 -85 -72 -108
-40 -24 -126 -27 -168 -5 -35 18 -60 62 -60 105 l0 30 -91 0 -91 0 7 -52z"/>
<path d="M2800 3005 c0 -103 90 -225 197 -265 82 -31 200 -32 268 -1 99 44
165 134 180 249 l7 52 -91 0 -91 0 0 -30 c0 -43 -25 -87 -60 -105 -42 -22
-128 -19 -168 5 -37 23 -72 75 -72 108 0 21 -4 22 -85 22 l-85 0 0 -35z"/>
<path d="M2386 2384 c-168 -41 -306 -164 -306 -274 l0 -30 83 0 82 0 15 33
c32 68 160 119 300 119 140 0 268 -51 300 -119 l15 -33 83 0 82 0 0 30 c0 112
-139 234 -311 275 -80 19 -263 18 -343 -1z"/>
</g>
</svg>
