<?xml version="1.0" standalone="no"?>
<!DOCTYPE svg PUBLIC "-//W3C//DTD SVG 20010904//EN"
 "http://www.w3.org/TR/2001/REC-SVG-20010904/DTD/svg10.dtd">
<svg version="1.0" xmlns="http://www.w3.org/2000/svg"
 width="512.000000pt" height="512.000000pt" viewBox="0 0 512.000000 512.000000"
 preserveAspectRatio="xMidYMid meet">
<metadata>
Created by potrace 1.16, written by Peter Selinger 2001-2019
</metadata>
<g transform="translate(0.000000,512.000000) scale(0.100000,-0.100000)"
fill="#000000" stroke="none">
<path d="M2340 5113 c-93 -10 -276 -46 -372 -72 -650 -183 -1123 -634 -1282
-1222 -42 -158 -48 -219 -50 -564 -2 -304 -4 -336 -24 -406 -31 -108 -73 -202
-148 -331 -145 -247 -196 -377 -216 -548 -20 -173 7 -318 106 -570 58 -149 60
-159 61 -245 0 -84 -3 -96 -42 -185 -61 -142 -76 -201 -71 -284 3 -41 14 -91
26 -118 30 -70 102 -141 175 -174 l62 -29 258 -3 257 -3 0 -160 c0 -146 2
-161 20 -179 27 -27 93 -27 120 0 18 18 20 33 20 154 0 224 26 416 76 562 13
39 24 84 24 102 0 59 -82 94 -129 55 -25 -21 -75 -162 -100 -283 l-18 -85
-239 -3 c-231 -2 -240 -2 -283 20 -68 35 -104 86 -109 157 -4 52 1 70 47 178
63 151 75 205 68 313 -6 86 -22 141 -91 313 -57 144 -79 247 -80 372 0 174 38
285 183 533 97 167 143 270 179 400 25 95 26 104 28 437 2 377 7 413 71 609
191 578 735 995 1424 1091 217 30 512 18 729 -31 122 -27 315 -98 439 -161 68
-35 135 -63 148 -63 34 0 73 42 73 80 0 45 -30 69 -177 143 -201 100 -427 167
-663 197 -78 9 -420 12 -500 3z"/>
<path d="M3885 4555 c-45 -44 -36 -67 77 -193 114 -127 236 -343 297 -527 57
-174 62 -219 65 -590 2 -333 2 -342 29 -438 34 -128 85 -241 185 -410 138
-236 176 -349 176 -522 -1 -131 -24 -232 -91 -399 -58 -145 -73 -205 -73 -294
0 -93 22 -189 72 -321 34 -87 40 -112 36 -157 -6 -69 -46 -128 -107 -161 -44
-23 -50 -23 -284 -21 l-240 3 -18 86 c-37 181 -112 358 -220 519 -58 86 -234
278 -303 329 l-29 21 80 83 c116 120 202 255 269 417 l22 55 70 -3 c86 -4 165
17 237 62 64 41 100 84 137 162 108 230 -38 495 -296 536 l-76 13 0 270 c0
250 -2 273 -21 315 -25 56 -62 96 -114 123 -33 17 -66 22 -200 28 -230 10
-310 39 -464 169 -105 89 -175 136 -240 162 -52 21 -71 23 -286 24 -249 1
-309 6 -394 35 -106 37 -163 81 -224 175 -40 61 -87 77 -142 51 -42 -20 -47
-32 -73 -168 -24 -130 -56 -202 -118 -269 -79 -84 -72 -87 -154 58 -39 70 -82
138 -95 151 -29 30 -76 32 -106 5 -46 -41 -213 -354 -262 -490 -37 -103 -42
-150 -23 -225 29 -111 111 -207 206 -241 l30 -10 0 -82 0 -82 -67 -10 c-134
-22 -238 -96 -295 -212 -27 -55 -34 -80 -36 -148 -5 -102 14 -170 65 -243 76
-108 202 -168 337 -159 l75 5 12 -36 c40 -125 174 -335 292 -458 l60 -63 -29
-22 c-50 -39 -175 -161 -215 -211 -50 -63 -52 -104 -8 -141 17 -14 40 -26 51
-26 14 0 59 39 127 109 106 108 189 181 208 181 5 0 47 -22 93 -50 45 -27 117
-64 160 -81 l78 -32 4 -166 c3 -163 4 -167 35 -234 173 -364 689 -328 816 58
5 16 12 101 16 189 l6 158 47 18 c64 24 182 84 234 119 l42 29 78 -67 c230
-196 376 -436 446 -731 15 -66 21 -134 25 -308 5 -201 7 -225 25 -247 25 -32
88 -35 118 -5 18 18 20 33 20 179 l0 160 258 3 c255 3 258 3 314 30 73 34 142
103 176 176 24 50 27 69 27 157 -1 98 -2 102 -47 202 -90 193 -90 243 -1 473
171 440 149 677 -98 1096 -76 128 -134 257 -161 354 -22 80 -23 103 -24 405
-1 336 -5 381 -51 554 -66 251 -209 511 -384 700 -58 64 -69 71 -103 71 -26 0
-44 -7 -61 -25z m-1890 -717 c132 -80 237 -100 521 -99 298 1 305 -2 495 -167
151 -130 285 -178 533 -191 146 -7 149 -7 172 -34 l24 -28 0 -473 c0 -382 -3
-490 -15 -562 -99 -568 -592 -984 -1166 -984 -551 0 -1036 405 -1156 964 -11
51 -16 158 -20 382 l-5 310 43 13 c52 16 104 48 147 92 89 90 116 232 69 366
l-24 71 58 41 c95 67 181 201 211 329 l13 51 30 -28 c16 -16 48 -40 70 -53z
m-613 -230 c119 -214 141 -304 98 -392 -56 -117 -244 -131 -311 -23 -40 65
-42 99 -14 184 25 75 153 333 165 333 3 0 31 -46 62 -102z m-162 -1065 c1 -99
12 -247 25 -315 l7 -38 -50 0 c-76 0 -148 42 -190 110 -31 50 -33 61 -30 122
3 55 9 75 33 109 17 23 42 51 56 61 30 23 95 47 127 48 21 0 22 -3 22 -97z
m2780 75 c106 -39 169 -152 141 -254 -27 -100 -122 -174 -224 -174 -41 0 -48
2 -43 18 15 47 26 171 26 295 l0 138 38 -7 c20 -4 48 -11 62 -16z m-1175
-1704 c-42 -145 -195 -232 -337 -190 -70 20 -143 83 -174 151 -21 44 -24 65
-24 169 l0 118 33 -6 c75 -14 363 -17 437 -4 l75 13 3 -99 c2 -67 -2 -115 -13
-152z"/>
<path d="M1915 3366 c-78 -36 -115 -76 -115 -123 0 -45 20 -70 66 -78 23 -5
40 2 78 30 64 46 105 47 170 3 61 -40 101 -41 133 -4 31 37 29 68 -7 110 -75
85 -218 112 -325 62z"/>
<path d="M2962 3364 c-60 -30 -112 -85 -112 -119 0 -13 11 -36 23 -51 32 -37
72 -36 133 4 65 43 104 42 171 -4 40 -28 59 -35 78 -30 71 18 88 96 33 148
-86 81 -224 103 -326 52z"/>
<path d="M1895 3032 c-158 -54 -253 -165 -286 -331 -37 -192 60 -386 239 -473
64 -31 72 -33 182 -33 108 0 119 2 181 31 159 76 251 218 251 389 -1 200 -113
360 -290 415 -82 25 -207 26 -277 2z m234 -159 c176 -63 230 -304 98 -441 -94
-98 -264 -109 -368 -23 -73 61 -114 187 -90 278 27 98 116 184 211 202 52 9
88 6 149 -16z"/>
<path d="M1980 2680 c-22 -22 -27 -78 -10 -110 13 -24 66 -35 102 -21 49 19
54 116 8 141 -31 16 -79 11 -100 -10z"/>
<path d="M2946 3031 c-178 -59 -288 -217 -287 -416 0 -173 90 -313 250 -389
62 -29 73 -31 181 -31 110 0 118 1 183 33 149 73 246 224 247 384 1 176 -94
329 -248 401 -59 28 -79 32 -167 34 -78 2 -113 -1 -159 -16z m261 -167 c94
-45 147 -131 148 -239 0 -169 -124 -286 -289 -273 -314 26 -333 480 -23 537
57 11 103 4 164 -25z"/>
<path d="M3035 2675 c-16 -15 -25 -36 -25 -55 0 -19 9 -40 25 -55 15 -16 36
-25 55 -25 19 0 40 9 55 25 16 15 25 36 25 55 0 19 -9 40 -25 55 -15 16 -36
25 -55 25 -19 0 -40 -9 -55 -25z"/>
<path d="M2345 2039 c-51 -13 -96 -43 -126 -87 -21 -31 -24 -47 -24 -118 0
-77 2 -85 31 -121 17 -21 48 -48 70 -60 37 -22 50 -23 262 -23 250 0 268 4
330 74 36 41 46 84 40 161 -6 72 -42 125 -105 156 -45 23 -60 24 -243 26 -107
1 -213 -3 -235 -8z m403 -165 c24 -17 29 -53 10 -72 -17 -17 -379 -17 -396 0
-19 19 -14 55 10 72 18 13 54 16 188 16 134 0 170 -3 188 -16z"/>
</g>
</svg>
