<?xml version="1.0" standalone="no"?>
<!DOCTYPE svg PUBLIC "-//W3C//DTD SVG 20010904//EN"
 "http://www.w3.org/TR/2001/REC-SVG-20010904/DTD/svg10.dtd">
<svg version="1.0" xmlns="http://www.w3.org/2000/svg"
 width="512.000000pt" height="512.000000pt" viewBox="0 0 512.000000 512.000000"
 preserveAspectRatio="xMidYMid meet">
<metadata>
Created by potrace 1.16, written by Peter Selinger 2001-2019
</metadata>
<g transform="translate(0.000000,512.000000) scale(0.100000,-0.100000)"
fill="#000000" stroke="none">
<path d="M2205 5113 c-347 -49 -635 -192 -881 -437 -215 -215 -339 -440 -416
-753 l-22 -88 -3 -1560 c-4 -1711 -8 -1596 57 -1689 34 -51 99 -100 161 -121
23 -8 86 -18 139 -21 l98 -7 4 -161 c4 -180 13 -210 78 -253 l33 -23 748 0
748 0 20 26 c27 34 27 64 0 98 l-20 26 -722 2 -722 3 -3 400 c-3 424 4 536 37
630 86 243 320 405 586 405 l83 0 4 -93 c3 -72 10 -104 30 -148 50 -110 135
-176 256 -199 152 -30 304 46 373 185 27 56 33 79 37 161 l5 97 111 -6 c170
-8 298 -62 409 -172 107 -107 161 -220 178 -374 5 -47 8 -266 7 -486 l-3 -400
-228 -5 c-212 -5 -230 -6 -243 -24 -21 -29 -18 -82 6 -106 19 -19 33 -20 269
-20 241 0 249 1 281 23 65 43 74 73 78 253 l4 161 98 7 c149 9 230 47 294 135
71 100 66 -37 66 1650 0 1475 -1 1522 -20 1636 -25 147 -75 297 -141 427 -69
134 -90 158 -139 158 -30 0 -43 -6 -59 -26 -30 -39 -26 -65 24 -152 57 -99
108 -226 143 -355 l27 -102 3 -1538 2 -1539 -22 -40 c-35 -61 -91 -89 -192
-95 l-83 -6 -6 254 c-4 210 -9 267 -25 330 -67 253 -272 468 -511 535 l-60 16
83 51 c179 106 340 261 451 431 74 114 111 191 155 325 64 191 70 263 70 795
l0 466 -27 30 c-30 33 -79 49 -148 50 l-40 0 3 43 c9 112 -66 308 -154 406
-66 73 -131 105 -214 105 -103 -1 -178 -49 -256 -166 -27 -40 -50 -75 -52 -78
-2 -3 -16 9 -30 26 -64 74 -102 72 -249 -12 -357 -205 -726 -299 -1283 -326
l-245 -12 -32 -32 -33 -32 0 -246 0 -247 25 -24 c13 -14 34 -25 45 -25 33 0
77 27 84 52 3 13 6 107 6 210 l0 186 108 6 c454 24 730 70 1012 168 110 39
303 126 402 184 l47 27 44 -49 c43 -47 45 -51 45 -115 2 -219 202 -384 423
-348 78 13 150 49 203 103 41 43 42 43 99 38 l57 -4 0 -422 c0 -456 -6 -529
-55 -685 -60 -189 -165 -362 -305 -501 -480 -478 -1240 -478 -1720 0 -231 230
-360 540 -360 866 0 87 -2 97 -25 119 -32 33 -83 34 -113 2 -20 -21 -22 -34
-22 -126 0 -369 145 -717 406 -977 92 -92 250 -210 327 -245 27 -12 26 -13
-64 -45 -192 -69 -334 -195 -426 -378 -63 -125 -74 -190 -80 -475 l-6 -254
-83 6 c-101 6 -157 34 -192 95 l-22 40 2 1539 3 1538 27 101 c72 271 200 490
394 673 196 186 440 308 709 357 144 26 624 26 770 0 263 -46 501 -164 695
-342 88 -81 116 -91 164 -53 20 16 26 29 26 58 0 33 -8 45 -67 102 -159 152
-346 264 -557 334 -198 66 -216 68 -611 70 -198 2 -373 1 -390 -2z m1195 -848
c87 -45 182 -245 166 -348 -20 -120 -138 -204 -249 -177 -56 15 -111 60 -138
113 -56 108 31 355 143 410 41 20 42 20 78 2z m-652 -2752 c-3 -71 -7 -86 -33
-124 -16 -23 -48 -52 -70 -63 -83 -43 -183 -17 -240 63 -26 38 -30 53 -33 124
l-4 82 192 0 192 0 -4 -82z"/>
<path d="M1950 3140 c-16 -16 -20 -33 -20 -84 0 -58 3 -67 26 -85 27 -21 59
-26 89 -15 45 18 61 131 24 178 -26 33 -88 37 -119 6z"/>
<path d="M3051 3134 c-37 -47 -21 -160 24 -178 30 -11 62 -6 89 15 23 18 26
27 26 85 0 79 -19 104 -79 104 -31 0 -44 -6 -60 -26z"/>
<path d="M2138 2336 c-27 -20 -39 -62 -27 -93 20 -53 13 -52 449 -52 436 0
429 -1 449 52 12 31 0 73 -27 93 -25 19 -819 19 -844 0z"/>
</g>
</svg>
